<svg xmlns="http://www.w3.org/2000/svg" width="71.441" height="80" viewBox="0 0 71.441 80"><path d="M377.6,216.568c8.3-9.218,12.119-11.265,15.473-11.11s4.923,2.154.5,11.857c-6.072,13.357-19.356,31.146-20.012,32h14.241c3.8-6.377,7.128-14.28,9.825-19.749v19.749h7.619v-39.7c-.307-6.431-4.759-8.722-10.512-8.806-7.133-.022-10.777.016-21.951,9.072-10.939,8.867-27.128,24.975-38.947,39.438h20.77C355.593,248.182,368.22,227,377.6,216.568Z" transform="translate(-333.813 -200.806)" fill="#c8161d"/><g transform="translate(0 54.625)"><g transform="translate(0 0)"><path d="M401.591,347.855h3.617V334.249h-3.617v13.607m-28.4-13.607a1.9,1.9,0,0,0-1.571.958l-6.32,12.648h4.254L375.3,336.4l5.008,11.457h2.538l-5.961-13.607H373.2m22.319,5.908h-8.076v-5.908h-3.613v13.607h3.613v-5.89h8.076v5.89h3.614V334.249h-3.614v5.908m-33.066.219c-1.736-.371-6.852-1.369-7.36-1.482a1.643,1.643,0,0,1-1.213-1.51,1.585,1.585,0,0,1,1.688-1.568h9.16v-1.589h-9.907c-2.107,0-4.333,1.691-4.333,3.8a3.76,3.76,0,0,0,2.926,3.721c1.613.419,6.9,1.233,7.389,1.448a1.67,1.67,0,0,1,1.2,1.546,1.581,1.581,0,0,1-1.709,1.533h-9.669l-5.259-12.023h-3.727a1.882,1.882,0,0,0-1.531.958l-6.338,12.648h4.281l5.731-11.457,5,11.457h12.586a3.993,3.993,0,0,0,4.03-3.79A3.716,3.716,0,0,0,362.449,340.376Z" transform="translate(-333.767 -334.227)" fill="#1a2d2b"/></g><g transform="translate(16.216 18.563)"><path d="M386.592,385.4l-3.742-5.8h-1.541a.475.475,0,0,0-.481.468V386.4h1.81v-5.281l3.451,5.281H388.4v-6.8h-1.811Z" transform="translate(-377.776 -379.586)" fill="#1a2d2b"/><rect width="1.804" height="6.799" transform="translate(0 0.013)" fill="#1a2d2b"/><path d="M400.969,380.508h2.6V386.4h1.8v-5.889h2.718v-.91h-7.116Z" transform="translate(-389.67 -379.586)" fill="#1a2d2b"/><path d="M419.864,380.137v5.735a.526.526,0,0,0,.525.526h5.7v-.91h-4.434v-2.062h4.434V382.5h-4.434v-1.994h4.434V379.6h-5.7A.528.528,0,0,0,419.864,380.137Z" transform="translate(-400.829 -379.586)" fill="#1a2d2b"/><path d="M436.783,382.987a3.273,3.273,0,0,0,3.262,3.392h3.086v-.91h-2.287c-1.41,0-2.007-1.1-2.007-2.461,0-1.376.6-2.519,2.007-2.519h2.287v-.922h-3.086A3.3,3.3,0,0,0,436.783,382.987Z" transform="translate(-410.821 -379.567)" fill="#1a2d2b"/><path d="M453.139,382.987a3.28,3.28,0,0,0,3.271,3.392h3.076v-.91h-2.317c-1.378,0-1.972-1.1-1.972-2.461,0-1.376.594-2.519,1.972-2.519h2.317v-.922H456.41A3.3,3.3,0,0,0,453.139,382.987Z" transform="translate(-420.481 -379.567)" fill="#1a2d2b"/></g></g></svg>